<?xml version="1.0" standalone="no"?>
<!DOCTYPE svg PUBLIC "-//W3C//DTD SVG 20010904//EN"
 "http://www.w3.org/TR/2001/REC-SVG-20010904/DTD/svg10.dtd">
<svg version="1.0" xmlns="http://www.w3.org/2000/svg"
 width="1024.000000pt" height="1024.000000pt" viewBox="0 0 1024.000000 1024.000000"
 preserveAspectRatio="xMidYMid meet">

<g transform="translate(0.000000,1024.000000) scale(0.100000,-0.100000)"
fill="#000000" stroke="none">
<path d="M1709 9227 c-20 -71 -24 -105 -24 -252 0 -131 4 -188 18 -249 50
-211 163 -396 333 -540 148 -127 258 -196 1224 -779 305 -184 570 -345 589
-356 18 -12 35 -20 36 -19 1 2 0 161 -3 353 l-5 350 -46 35 c-70 52 -436 320
-936 685 -386 282 -831 608 -1092 801 l-71 53 -23 -82z"/>
<path d="M1466 8133 c-3 -43 -2 -116 3 -163 27 -250 118 -431 303 -605 106
-100 173 -145 332 -221 117 -56 992 -410 1456 -589 96 -38 208 -83 249 -101
40 -19 75 -34 77 -34 2 0 4 103 4 230 l0 229 -107 64 c-60 35 -148 86 -198
114 -49 28 -333 188 -630 355 -714 404 -1443 798 -1474 798 -4 0 -11 -35 -15
-77z"/>
<path d="M4030 6902 c0 -414 5 -786 10 -863 23 -295 76 -521 180 -765 32 -73
97 -200 116 -223 2 -2 38 29 81 67 347 315 685 494 1053 558 155 27 395 25
515 -5 191 -46 355 -161 423 -296 62 -125 77 -194 76 -360 -1 -189 -26 -294
-114 -470 -149 -300 -395 -551 -749 -761 -143 -85 -325 -176 -761 -379 -168
-78 -618 -292 -1000 -475 -382 -183 -743 -354 -802 -381 -59 -26 -131 -66
-160 -89 -76 -59 -886 -850 -1173 -1146 l-244 -251 214 -7 c118 -3 246 -3 284
0 l69 7 184 201 c341 373 795 861 860 923 66 63 73 66 205 96 l63 14 -28 -31
c-15 -17 -110 -128 -212 -246 -101 -118 -302 -350 -445 -515 -223 -257 -299
-346 -384 -447 -13 -17 0 -18 266 -18 l280 0 485 637 c267 351 507 668 533
705 33 47 58 71 79 77 38 12 193 42 387 76 81 13 154 28 163 31 9 3 16 1 16
-5 0 -16 -80 -184 -127 -267 l-40 -70 313 -420 c172 -230 336 -452 364 -491
l51 -73 -165 0 c-234 0 -272 -17 -380 -167 l-38 -53 852 0 852 0 -48 68 c-109
155 -97 151 -434 159 l-271 6 -108 146 c-144 194 -470 645 -506 699 -38 58
-33 71 106 271 125 180 239 317 291 349 18 11 119 57 223 102 497 214 750 373
1010 634 478 479 727 1060 786 1836 8 106 9 207 3 320 -16 293 -12 435 14 515
12 39 38 91 57 117 65 88 117 106 540 188 262 51 549 120 538 131 -6 6 -862
29 -1107 29 l-60 0 29 30 c52 54 66 55 529 42 231 -7 522 -12 644 -12 l224 0
-49 38 c-237 184 -611 304 -1035 331 -99 7 -157 15 -178 26 -17 9 -66 51 -108
94 -59 60 -91 83 -137 102 -59 24 -65 24 -395 24 -320 0 -339 -1 -415 -23
-173 -50 -268 -131 -390 -334 -38 -62 -184 -297 -325 -523 -234 -376 -321
-519 -364 -600 l-15 -30 -1 35 c0 19 -11 125 -24 235 -14 110 -32 268 -41 350
-35 325 -78 441 -209 570 -88 86 -889 685 -917 685 -5 0 -9 -299 -9 -728z
m2968 -41 c12 -7 7 -14 -27 -37 -72 -47 -200 -44 -265 7 -14 11 -26 24 -26 29
0 19 283 20 318 1z"/>
<path d="M1610 7117 c0 -23 54 -256 69 -300 87 -251 292 -451 578 -564 162
-65 483 -156 1138 -325 453 -117 507 -130 509 -126 2 2 -2 110 -8 241 -9 204
-13 240 -27 248 -43 23 -1210 460 -1679 628 -497 178 -580 207 -580 198z"/>
<path d="M2384 5940 c9 -47 87 -208 134 -277 115 -169 267 -277 474 -337 147
-42 223 -48 647 -53 402 -5 414 -5 407 13 -38 97 -88 258 -101 326 l-17 84
-186 37 c-226 45 -1183 212 -1267 222 -33 4 -69 9 -79 12 -17 5 -18 1 -12 -27z"/>
<path d="M5548 5570 c-26 -4 -89 -20 -140 -35 -555 -164 -1127 -615 -1836
-1449 -51 -60 -91 -110 -89 -112 3 -4 1018 409 1042 424 5 3 1 -7 -10 -23 -88
-134 -186 -300 -246 -418 -39 -76 -67 -137 -62 -134 4 3 134 49 288 102 154
54 323 114 376 135 l97 37 -46 -56 c-70 -86 -187 -273 -336 -533 l-27 -48 93
34 c126 46 343 135 518 213 553 247 836 469 1028 807 99 173 150 369 138 536
-17 250 -146 422 -376 500 -53 18 -92 23 -215 26 -82 1 -171 -1 -197 -6z"/>
<path d="M3870 5154 c-8 -1 -184 -8 -390 -14 -206 -6 -376 -13 -379 -15 -6 -7
46 -90 95 -149 55 -68 175 -166 248 -203 117 -59 295 -87 409 -64 91 19 191
76 273 153 40 39 76 78 79 88 4 11 -14 55 -46 114 l-51 96 -111 -1 c-62 -1
-119 -3 -127 -5z"/>
<path d="M3810 3970 c-168 -65 -359 -138 -425 -164 -69 -26 -141 -62 -170 -84
-83 -62 -531 -641 -482 -623 185 72 975 386 1072 428 l130 55 97 237 c54 131
100 245 104 254 4 11 1 17 -7 16 -8 0 -151 -54 -319 -119z"/>
<path d="M4435 3758 c-44 -22 -179 -93 -300 -158 -238 -127 -792 -399 -970
-475 -60 -26 -207 -85 -325 -130 -118 -46 -240 -94 -271 -108 -62 -28 -87 -54
-196 -212 -126 -181 -353 -516 -353 -520 0 -7 185 84 585 289 215 110 606 305
870 434 264 128 564 274 666 323 203 100 184 82 234 215 13 33 44 109 70 170
56 130 87 214 77 214 -4 -1 -43 -19 -87 -42z"/>
<path d="M5660 2801 c-311 -133 -346 -150 -376 -183 -32 -34 -127 -195 -189
-318 l-54 -108 267 -359 c147 -197 289 -388 316 -425 l48 -68 175 0 c139 0
173 3 165 13 -25 31 -530 747 -551 780 l-23 37 33 53 c77 122 220 332 314 462
135 188 167 235 158 234 -4 0 -132 -53 -283 -118z"/>
<path d="M6160 1256 c0 -3 32 -53 70 -112 39 -60 70 -112 70 -116 0 -4 124 -8
275 -8 151 0 275 3 275 8 0 4 -22 39 -48 77 -55 81 -118 128 -192 144 -48 10
-450 16 -450 7z"/>
</g>
</svg>
