<svg width="1200" height="1249" viewBox="0 0 1200 1249" fill="none" xmlns="http://www.w3.org/2000/svg">
<rect width="1200" height="1249" fill="white"/>
<path d="M110.797 96.6549C107.871 105.881 107.286 110.299 107.286 129.399C107.286 146.421 107.871 153.828 109.919 161.754C117.234 189.171 133.764 213.21 158.633 231.921C180.283 248.423 196.375 257.389 337.688 333.143C382.305 357.052 421.071 377.972 423.851 379.402C426.484 380.961 428.971 382 429.117 381.87C429.263 381.611 429.117 360.95 428.678 336.002L427.947 290.523L421.218 285.976C410.978 279.219 357.437 244.395 284.293 196.968C227.826 160.325 162.729 117.965 124.548 92.8867L114.162 86L110.797 96.6549Z" fill="black"/>
<path d="M75.2469 238.812C74.808 244.399 74.9543 253.885 75.6857 259.992C79.6355 292.476 92.9476 315.995 120.011 338.605C135.517 351.598 145.318 357.446 168.578 367.321C185.693 374.598 313.694 420.596 381.571 443.855C395.615 448.793 411.999 454.64 417.997 456.979C423.848 459.448 428.968 461.397 429.261 461.397C429.553 461.397 429.846 448.013 429.846 431.511V401.755L414.193 393.439C405.416 388.891 392.543 382.264 385.228 378.626C378.06 374.987 336.515 354.197 293.068 332.497C188.619 280.002 81.976 228.806 77.4412 228.806C76.856 228.806 75.832 233.354 75.2469 238.812Z" fill="black"/>
<path d="M450.326 398.765C450.326 452.559 451.057 500.896 451.789 510.902C455.153 549.234 462.907 578.6 478.12 610.305C482.802 619.79 492.31 636.293 495.09 639.281C495.382 639.541 500.649 635.513 506.939 630.575C557.7 589.645 607.145 566.385 660.979 558.069C683.653 554.561 718.762 554.821 736.316 558.719C764.257 564.696 788.248 579.639 798.196 597.181C807.266 613.423 809.46 622.389 809.314 643.959C809.167 668.517 805.51 682.161 792.637 705.03C770.84 744.012 734.854 776.626 683.068 803.913C662.149 814.958 635.525 826.783 571.744 853.16C547.168 863.295 481.339 891.102 425.457 914.881C369.576 938.66 316.766 960.879 308.135 964.388C299.504 967.766 288.972 972.964 284.729 975.952C273.611 983.619 155.119 1086.4 113.135 1124.86L77.4409 1157.48L108.746 1158.39C126.008 1158.78 144.733 1158.78 150.292 1158.39L160.386 1157.48L187.302 1131.36C237.186 1082.89 303.6 1019.48 313.109 1011.43C322.764 1003.24 323.788 1002.85 343.098 998.951L352.314 997.132L348.218 1001.16C346.023 1003.37 332.126 1017.79 317.205 1033.13C302.43 1048.46 273.026 1078.6 252.107 1100.04C219.485 1133.44 208.368 1145 195.933 1158.13C194.031 1160.34 195.933 1160.47 234.845 1160.47H275.806L346.755 1077.69C385.813 1032.09 420.922 990.895 424.726 986.087C429.553 979.98 433.21 976.862 436.282 976.082C441.841 974.523 464.516 970.625 492.895 966.207C504.745 964.518 515.423 962.569 516.74 962.179C518.057 961.789 519.081 962.049 519.081 962.828C519.081 964.907 507.378 986.737 500.502 997.522L494.651 1006.62L540.439 1061.19C565.6 1091.08 589.591 1119.92 593.687 1124.99L601.148 1134.48H577.01C542.779 1134.48 537.22 1136.69 521.421 1156.18L515.862 1163.06H640.499H765.135L758.113 1154.23C742.168 1134.09 743.923 1134.61 694.625 1133.57L654.981 1132.79L639.182 1113.82C618.117 1088.61 570.427 1030.01 565.161 1022.99C559.602 1015.45 560.333 1013.76 580.667 987.777C598.953 964.388 615.63 946.586 623.237 942.428C625.87 940.999 640.645 935.022 655.859 929.174C728.563 901.367 765.574 880.707 803.608 846.793C873.533 784.553 909.959 709.058 918.59 608.226C919.76 594.452 919.906 581.328 919.029 566.645C916.688 528.573 917.273 510.122 921.077 499.727C922.832 494.659 926.636 487.903 929.415 484.524C938.924 473.09 946.531 470.751 1008.41 460.096C1046.74 453.469 1088.72 444.503 1087.11 443.074C1086.23 442.294 961.013 439.305 925.173 439.305H916.395L920.638 435.407C928.245 428.391 930.293 428.261 998.023 429.95C1031.82 430.859 1074.39 431.509 1092.23 431.509H1125L1117.83 426.571C1083.16 402.663 1028.45 387.07 966.426 383.562C951.943 382.652 943.459 381.613 940.386 380.183C937.9 379.014 930.732 373.556 924.588 367.969C915.957 360.173 911.275 357.184 904.546 354.715C895.915 351.597 895.038 351.597 846.763 351.597C799.951 351.597 797.172 351.727 786.054 354.585C760.746 361.082 746.849 371.607 729.002 397.985C723.443 406.041 702.085 436.577 681.459 465.943C647.228 514.8 634.501 533.381 628.211 543.906L626.016 547.804L625.87 543.256C625.87 540.788 624.261 527.014 622.359 512.721C620.311 498.428 617.678 477.897 616.361 467.242C611.241 425.012 604.951 409.939 585.787 393.177C572.914 382.002 455.738 304.169 451.642 304.169C450.911 304.169 450.326 343.021 450.326 398.765ZM884.505 404.092C886.26 405.002 885.529 405.911 880.555 408.9C870.023 415.007 851.298 414.617 841.789 407.99C839.741 406.561 837.986 404.872 837.986 404.222C837.986 401.753 879.385 401.623 884.505 404.092Z" fill="black"/>
<path d="M96.3149 370.826C96.3149 373.814 104.214 404.09 106.409 409.807C119.136 442.422 149.124 468.41 190.962 483.093C214.661 491.539 261.619 503.363 357.437 525.323C423.705 540.526 431.604 542.215 431.897 541.695C432.189 541.435 431.604 527.402 430.726 510.38C429.41 483.872 428.825 479.195 426.777 478.155C420.486 475.166 249.77 418.383 181.161 396.554C108.457 373.424 96.3149 369.656 96.3149 370.826Z" fill="black"/>
<path d="M209.536 523.763C210.852 529.87 222.263 550.79 229.138 559.756C245.961 581.715 268.197 595.749 298.478 603.545C319.982 609.002 331.1 609.782 393.126 610.432C451.933 611.081 453.688 611.081 452.664 608.742C447.105 596.138 439.791 575.218 437.889 566.382L435.402 555.468L408.193 550.66C375.132 544.813 235.136 523.113 222.848 521.813C218.02 521.294 212.754 520.644 211.291 520.254C208.804 519.605 208.658 520.124 209.536 523.763Z" fill="black"/>
<path d="M672.392 571.842C668.589 572.362 659.373 574.441 651.912 576.39C570.723 597.7 487.047 656.303 383.33 764.672C375.869 772.468 370.018 778.965 370.31 779.225C370.749 779.744 519.23 726.08 522.741 724.131C523.473 723.741 522.887 725.04 521.278 727.119C508.405 744.531 494.069 766.101 485.292 781.434C479.587 791.309 475.49 799.235 476.222 798.845C476.807 798.456 495.824 792.478 518.353 785.592C540.881 778.575 565.603 770.779 573.356 768.05L587.546 763.242L580.817 770.519C570.577 781.694 553.461 805.992 531.665 839.776L527.715 846.013L541.32 841.595C559.752 835.618 591.496 824.054 617.096 813.918C697.993 781.823 739.392 752.977 767.479 709.058C781.961 686.578 789.422 661.11 787.666 639.411C785.18 606.926 766.309 584.576 732.663 574.441C724.909 572.102 719.204 571.453 701.211 571.063C689.215 570.933 676.196 571.193 672.392 571.842Z" fill="black"/>
<path d="M426.919 625.895C425.749 626.025 400.002 626.935 369.867 627.714C339.732 628.494 314.863 629.403 314.424 629.663C313.547 630.573 321.154 641.358 328.322 649.024C336.367 657.86 353.922 670.594 364.601 675.402C381.716 683.068 407.755 686.706 424.432 683.718C437.744 681.249 452.373 673.842 464.368 663.837C470.22 658.77 475.486 653.702 475.925 652.403C476.51 650.973 473.877 645.256 469.196 637.59L461.735 625.115L445.497 625.245C436.428 625.375 428.089 625.635 426.919 625.895Z" fill="black"/>
<path d="M418.147 779.747C393.571 788.193 365.63 797.678 355.975 801.056C345.881 804.435 335.349 809.113 331.106 811.971C318.964 820.028 253.428 895.262 260.596 892.923C287.659 883.568 403.226 842.767 417.415 837.309L436.433 830.163L450.623 799.367C458.522 782.345 465.251 767.532 465.836 766.363C466.421 764.934 465.983 764.154 464.812 764.284C463.642 764.284 442.723 771.301 418.147 779.747Z" fill="black"/>
<path d="M509.569 807.293C503.132 810.152 483.383 819.377 465.683 827.823C430.866 844.326 349.824 879.669 323.784 889.544C315.007 892.923 293.503 900.589 276.241 906.436C258.979 912.413 241.132 918.651 236.598 920.47C227.528 924.108 223.871 927.486 207.925 948.017C189.493 971.536 156.286 1015.07 156.286 1015.58C156.286 1016.49 183.349 1004.67 241.864 978.033C273.316 963.739 330.514 938.401 369.133 921.639C407.753 905.007 451.639 886.036 466.56 879.669C496.257 866.675 493.477 869.014 500.791 851.732C502.693 847.444 507.228 837.569 511.032 829.642C519.224 812.75 523.759 801.836 522.296 801.836C521.71 801.966 516.005 804.304 509.569 807.293Z" fill="black"/>
<path d="M688.775 931.641C643.279 948.922 638.159 951.131 633.771 955.419C629.09 959.837 615.192 980.757 606.123 996.74L598.223 1010.77L637.282 1057.42C658.786 1083.02 679.559 1107.84 683.508 1112.65L690.53 1121.48H716.13C736.464 1121.48 741.438 1121.09 740.268 1119.79C736.61 1115.76 662.736 1022.73 659.664 1018.44L656.299 1013.63L661.126 1006.75C672.391 990.893 693.31 963.605 707.061 946.713C726.809 922.285 731.49 916.178 730.174 916.308C729.589 916.308 710.864 923.195 688.775 931.641Z" fill="black"/>
<path d="M761.915 1132.4C761.915 1132.79 766.596 1139.29 772.155 1146.95C777.86 1154.75 782.395 1161.5 782.395 1162.02C782.395 1162.54 800.535 1163.06 822.624 1163.06C844.713 1163.06 862.853 1162.67 862.853 1162.02C862.853 1161.5 859.635 1156.96 855.831 1152.02C847.785 1141.49 838.569 1135.39 827.744 1133.31C820.722 1132.01 761.915 1131.23 761.915 1132.4Z" fill="black"/>
</svg>
